<svg width="25" height="25" viewBox="0 0 25 25" fill="none" xmlns="http://www.w3.org/2000/svg">
<rect x="0.25" y="0.25" width="24.5" height="24.5" rx="12.25" stroke="white" stroke-width="0.5"/>
<path d="M15.4562 17.5912C15.4982 17.5912 15.5398 17.5828 15.5784 17.5663C15.6171 17.5499 15.652 17.5259 15.6812 17.4956L20.2806 12.7262C20.3365 12.668 20.3678 12.5904 20.3678 12.5097C20.3678 12.4289 20.3365 12.3513 20.2806 12.2931L15.6612 7.50436C15.6332 7.47305 15.5992 7.4477 15.5612 7.42983C15.5231 7.41196 15.4819 7.40194 15.4399 7.40037C15.398 7.39879 15.3561 7.4057 15.3169 7.42067C15.2776 7.43564 15.2418 7.45837 15.2115 7.48749C15.1813 7.51662 15.1572 7.55155 15.1407 7.5902C15.1243 7.62885 15.1158 7.67042 15.1157 7.71242C15.1157 7.75443 15.1241 7.79601 15.1405 7.83468C15.1569 7.87335 15.181 7.90831 15.2112 7.93748L19.6212 12.5094L15.2312 17.0619C15.1886 17.106 15.16 17.1617 15.1489 17.222C15.1377 17.2823 15.1446 17.3445 15.1686 17.401C15.1926 17.4574 15.2326 17.5055 15.2838 17.5394C15.3349 17.5732 15.3949 17.5912 15.4562 17.5912Z" fill="white"/>
<path d="M4.94373 12.8219H20.0562C20.1391 12.8219 20.2186 12.789 20.2772 12.7304C20.3358 12.6718 20.3687 12.5923 20.3687 12.5094C20.3687 12.4265 20.3358 12.347 20.2772 12.2884C20.2186 12.2298 20.1391 12.1969 20.0562 12.1969H4.94373C4.86085 12.1969 4.78136 12.2298 4.72275 12.2884C4.66415 12.347 4.63123 12.4265 4.63123 12.5094C4.63123 12.5923 4.66415 12.6718 4.72275 12.7304C4.78136 12.789 4.86085 12.8219 4.94373 12.8219Z" fill="white"/>
</svg>
