<svg width="25" height="25" viewBox="0 0 25 25" fill="none" xmlns="http://www.w3.org/2000/svg">
<rect x="24.75" y="24.75" width="24.5" height="24.5" rx="12.25" transform="rotate(180 24.75 24.75)" stroke="#242D38" stroke-width="0.5"/>
<path d="M9.54375 7.40877C9.50174 7.40876 9.46017 7.41723 9.42151 7.43366C9.38285 7.45009 9.3479 7.47415 9.31875 7.50439L4.71937 12.2738C4.66342 12.332 4.63217 12.4096 4.63217 12.4903C4.63217 12.5711 4.66342 12.6487 4.71937 12.7069L9.33875 17.4956C9.36675 17.527 9.40077 17.5523 9.43879 17.5702C9.4768 17.588 9.51803 17.5981 9.56 17.5996C9.60198 17.6012 9.64384 17.5943 9.68309 17.5793C9.72233 17.5644 9.75816 17.5416 9.78842 17.5125C9.81869 17.4834 9.84277 17.4484 9.85923 17.4098C9.87569 17.3712 9.88419 17.3296 9.88422 17.2876C9.88425 17.2456 9.87581 17.204 9.85941 17.1653C9.843 17.1267 9.81897 17.0917 9.78875 17.0625L5.37875 12.4906L9.76875 7.93814C9.8113 7.89399 9.83993 7.8383 9.85106 7.778C9.8622 7.7177 9.85534 7.65546 9.83136 7.59903C9.80737 7.54259 9.76731 7.49446 9.71617 7.46063C9.66503 7.4268 9.60507 7.40876 9.54375 7.40877Z" fill="#242D38"/>
<path d="M20.0562 12.1781L4.94374 12.1781C4.86086 12.1781 4.78138 12.211 4.72277 12.2696C4.66417 12.3282 4.63124 12.4077 4.63124 12.4906C4.63124 12.5735 4.66417 12.653 4.72277 12.7116C4.78138 12.7702 4.86086 12.8031 4.94374 12.8031L20.0562 12.8031C20.1391 12.8031 20.2186 12.7702 20.2772 12.7116C20.3358 12.653 20.3687 12.5735 20.3687 12.4906C20.3687 12.4077 20.3358 12.3282 20.2772 12.2696C20.2186 12.211 20.1391 12.1781 20.0562 12.1781Z" fill="#242D38"/>
</svg>
