<svg width="32" height="32" viewBox="0 0 32 32" fill="none" xmlns="http://www.w3.org/2000/svg">
<path d="M10.8146 21.1852C10.6896 21.0602 10.6194 20.8907 10.6194 20.7139C10.6194 20.5371 10.6896 20.3676 10.8146 20.2426L15.0572 15.9999L10.8146 11.7572C10.6931 11.6315 10.6259 11.4631 10.6275 11.2883C10.629 11.1135 10.6991 10.9463 10.8227 10.8227C10.9463 10.6991 11.1135 10.629 11.2883 10.6275C11.4631 10.6259 11.6315 10.6931 11.7572 10.8146L15.9999 15.0572L20.2426 10.8146C20.3683 10.6931 20.5367 10.6259 20.7115 10.6275C20.8863 10.629 21.0535 10.6991 21.1771 10.8227C21.3007 10.9463 21.3708 11.1135 21.3724 11.2883C21.3739 11.4631 21.3067 11.6315 21.1852 11.7572L16.9426 15.9999L21.1852 20.2426C21.3067 20.3683 21.3739 20.5367 21.3724 20.7115C21.3708 20.8863 21.3007 21.0535 21.1771 21.1771C21.0535 21.3007 20.8863 21.3708 20.7115 21.3724C20.5367 21.3739 20.3683 21.3067 20.2426 21.1852L15.9999 16.9426L11.7572 21.1852C11.6322 21.3102 11.4627 21.3804 11.2859 21.3804C11.1091 21.3804 10.9396 21.3102 10.8146 21.1852Z" fill="#B0B0B0"/>
<path fill-rule="evenodd" clip-rule="evenodd" d="M16 29.3333C23.364 29.3333 29.3333 23.364 29.3333 16C29.3333 8.63596 23.364 2.66663 16 2.66663C8.63596 2.66663 2.66663 8.63596 2.66663 16C2.66663 23.364 8.63596 29.3333 16 29.3333ZM16 28C22.6273 28 28 22.6273 28 16C28 9.37263 22.6273 3.99996 16 3.99996C9.37263 3.99996 3.99996 9.37263 3.99996 16C3.99996 22.6273 9.37263 28 16 28Z" fill="#B0B0B0"/>
</svg>
