<svg width="84" height="84" viewBox="0 0 84 84" fill="none" xmlns="http://www.w3.org/2000/svg">
<circle cx="41.665" cy="41.665" r="41.665" fill="#80C544"/>
<path d="M42.0001 20.3C35.1615 20.3 29.6001 25.8614 29.6001 32.7C29.6001 33.1111 29.7634 33.5053 30.0541 33.796C30.3448 34.0867 30.739 34.25 31.1501 34.25C31.5612 34.25 31.9554 34.0867 32.2461 33.796C32.5368 33.5053 32.7001 33.1111 32.7001 32.7C32.7001 27.5726 36.8727 23.4 42.0001 23.4C47.1275 23.4 51.3001 27.5726 51.3001 32.7C51.3001 36.5719 49.1549 38.4753 46.4176 40.822L46.3184 40.9057C43.6555 43.1904 40.4501 45.937 40.4501 51.3V52.85C40.4501 53.2611 40.6134 53.6553 40.9041 53.946C41.1948 54.2367 41.589 54.4 42.0001 54.4C42.4112 54.4 42.8054 54.2367 43.0961 53.946C43.3868 53.6553 43.5501 53.2611 43.5501 52.85V51.3C43.5501 47.4281 45.6953 45.5247 48.4326 43.178L48.5318 43.0943C51.1978 40.8065 54.4001 38.0661 54.4001 32.7C54.4001 25.8614 48.8387 20.3 42.0001 20.3ZM42.0001 63.7C42.6167 63.7 43.2081 63.455 43.6441 63.019C44.0801 62.583 44.3251 61.9916 44.3251 61.375C44.3251 60.7584 44.0801 60.167 43.6441 59.731C43.2081 59.2949 42.6167 59.05 42.0001 59.05C41.3835 59.05 40.7921 59.2949 40.3561 59.731C39.9201 60.167 39.6751 60.7584 39.6751 61.375C39.6751 61.9916 39.9201 62.583 40.3561 63.019C40.7921 63.455 41.3835 63.7 42.0001 63.7Z" fill="white"/>
</svg>
