<svg width="84" height="84" viewBox="0 0 84 84" fill="none" xmlns="http://www.w3.org/2000/svg">
<circle cx="41.665" cy="41.665" r="41.665" fill="#80C544"/>
<g clip-path="url(#clip0_1_126)">
<path d="M54.4907 33.0342C54.5264 32.8566 54.4901 32.6721 54.3898 32.5212C54.2895 32.3704 54.1334 32.2655 53.9558 32.2298C53.7782 32.1941 53.5937 32.2304 53.4428 32.3307C53.292 32.431 53.1872 32.5871 53.1514 32.7647L51.2652 42.1394C51.2295 42.317 51.2658 42.5015 51.3661 42.6523C51.4664 42.8032 51.6225 42.908 51.8001 42.9437L58.4963 44.291C58.6739 44.3268 58.8584 44.2905 59.0093 44.1902C59.1601 44.0899 59.2649 43.9338 59.3007 43.7562C59.3364 43.5786 59.3001 43.394 59.1998 43.2432C59.0995 43.0924 58.9434 42.9875 58.7658 42.9518L52.7392 41.7392L54.4907 33.0342ZM37.4848 27.5223C37.7603 26.1529 38.4491 24.901 39.4582 23.9352C40.4673 22.9694 41.7482 22.3362 43.1284 22.1209C44.5085 21.9057 45.9214 22.1187 47.1767 22.7314C48.432 23.344 49.4693 24.3268 50.1488 25.5472C52.0817 25.2396 54.0542 25.2806 55.9727 25.6683C57.9494 26.0661 59.7712 26.8047 61.3903 27.8091C62.1317 27.2289 62.9849 26.8082 63.8966 26.5734C64.8082 26.3386 65.7585 26.2948 66.6879 26.4448C67.6173 26.5947 68.5056 26.9351 69.2971 27.4447C70.0887 27.9542 70.7664 28.6219 71.2877 29.4057C71.8089 30.1896 72.1625 31.0728 72.3263 31.9998C72.4901 32.9268 72.4604 33.8777 72.2392 34.7927C72.0181 35.7078 71.6102 36.5672 71.0411 37.3171C70.472 38.067 69.754 38.6912 68.9323 39.1504C69.2312 41.0304 69.2078 42.996 68.8101 44.9728C68.005 49.0065 65.7069 52.5876 62.3753 54.9999L62.4018 55.0345L65.6111 59.8606C65.7116 60.0116 65.7479 60.1964 65.7121 60.3742C65.6763 60.552 65.5714 60.7083 65.4203 60.8088C65.2693 60.9092 65.0846 60.9455 64.9067 60.9098C64.7289 60.874 64.5726 60.769 64.4722 60.618L61.2628 55.7919L61.2422 55.7557C57.7281 57.8935 53.537 58.6271 49.5057 57.8101C45.4725 57.0038 41.8918 54.7059 39.4785 51.3753L39.4439 51.4018L34.6178 54.6112C34.4668 54.7116 34.282 54.7479 34.1042 54.7122C33.9264 54.6764 33.7701 54.5714 33.6696 54.4204C33.5692 54.2694 33.5329 54.0846 33.5687 53.9068C33.6044 53.729 33.7094 53.5726 33.8604 53.4722L38.6865 50.2629L38.7227 50.2423C36.5849 46.7282 35.8513 42.537 36.6683 38.5057C37.066 36.529 37.8046 34.7072 38.809 33.0881C38.1982 32.3117 37.7634 31.4119 37.5347 30.4508C37.3061 29.4898 37.289 28.4906 37.4848 27.5223ZM38.824 27.7918C38.5265 29.2703 38.856 30.7286 39.6294 31.8917C41.8848 28.8971 45.0948 26.7621 48.7285 25.8397C48.1295 24.9406 47.2774 24.2393 46.2799 23.8243C45.2825 23.4093 44.1843 23.2993 43.1244 23.5082C42.0644 23.7171 41.0902 24.2356 40.3247 24.998C39.5593 25.7604 39.0371 26.7326 38.824 27.7918ZM70.9658 34.2588C71.1786 33.1998 71.0728 32.1014 70.6617 31.1024C70.2505 30.1035 69.5525 29.2488 68.6559 28.6464C67.7592 28.044 66.7041 27.7209 65.6238 27.7178C64.5436 27.7148 63.4867 28.0321 62.5867 28.6294C65.5813 30.8848 67.7163 34.0948 68.6387 37.7285C69.8433 36.9259 70.6803 35.678 70.9658 34.2588ZM49.7751 56.4709C57.911 58.1079 65.8339 52.8392 67.4708 44.7033C69.1078 36.5674 63.8392 28.6446 55.7033 27.0076C47.5674 25.3706 39.6445 30.6393 38.0075 38.7752C36.3706 46.911 41.6392 54.8339 49.7751 56.4709Z" fill="white"/>
</g>
<path d="M13 34H34" stroke="white" stroke-width="2" stroke-linecap="round"/>
<path d="M6 41H27" stroke="white" stroke-width="2" stroke-linecap="round"/>
<path d="M13 48H34" stroke="white" stroke-width="2" stroke-linecap="round"/>
<defs>
<clipPath id="clip0_1_126">
<rect width="43.7146" height="43.7146" fill="white" transform="translate(35.6228 16) rotate(11.3763)"/>
</clipPath>
</defs>
</svg>
