<svg width="84" height="84" viewBox="0 0 84 84" fill="none" xmlns="http://www.w3.org/2000/svg">
<circle cx="41.665" cy="41.665" r="41.665" fill="#80C544"/>
<path d="M60.7293 19.835H23.2709C20.4174 19.835 18.1042 22.1482 18.1042 25.0017V58.9983C18.1042 61.8518 20.4174 64.165 23.2709 64.165H60.7293C63.5827 64.165 65.8959 61.8518 65.8959 58.9983V25.0017C65.8959 22.1482 63.5827 19.835 60.7293 19.835Z" stroke="white" stroke-width="2" stroke-linecap="round" stroke-linejoin="round"/>
<path d="M25.6695 31.9935V24.2719M18.3264 28.1327H65.8959M58.5515 24.2719V31.9935" stroke="white" stroke-width="2" stroke-linecap="round" stroke-linejoin="round"/>
<path d="M41.9999 60.0872C49.5973 60.0872 55.7562 53.9283 55.7562 46.331C55.7562 38.7336 49.5973 32.5747 41.9999 32.5747C34.4025 32.5747 28.2437 38.7336 28.2437 46.331C28.2437 53.9283 34.4025 60.0872 41.9999 60.0872Z" stroke="white" stroke-width="2" stroke-linecap="round" stroke-linejoin="round"/>
<path d="M42 47.9132V36.6525M47.5025 46.331H40.4177" stroke="white" stroke-width="2" stroke-linecap="round" stroke-linejoin="round"/>
</svg>
