<svg width="84" height="84" viewBox="0 0 84 84" fill="none" xmlns="http://www.w3.org/2000/svg">
<circle cx="41.665" cy="41.665" r="41.665" fill="#80C544"/>
<path fill-rule="evenodd" clip-rule="evenodd" d="M43.4319 27.9532C47.703 23.2415 52.9592 22.2339 59.0104 26.9437C59.0104 26.9437 68.524 20.3813 74.7535 26.9437C78.7876 31.1942 76.8489 35.6357 74.9816 39.9098C73.9672 42.2334 72.9743 44.508 72.9743 46.6758C72.5014 47.5042 68.4192 47.9448 63.5126 48.079L51.1262 52.5381L50.7345 50.8442L58.3211 48.1123C56.5511 48.0913 54.7817 48.0345 53.014 47.9419L50.2919 48.9221L50.2625 48.7948C50.1826 48.4514 50.1968 48.0928 50.3037 47.7568C47.3397 47.5062 45.2414 47.1361 45.0328 46.6758C45.0328 44.1653 44.1956 41.5528 43.3829 39.0188C42.0434 34.8446 40.7734 30.8848 43.4319 27.9532ZM57.808 28.4888C57.8622 28.5306 57.9177 28.5698 57.9745 28.6063L64.2999 33.2201C64.4036 33.2981 64.5218 33.3547 64.6477 33.3866C64.7735 33.4185 64.9044 33.425 65.0328 33.4059C65.1611 33.3867 65.2844 33.3422 65.3954 33.275C65.5064 33.2077 65.603 33.1191 65.6795 33.0142C65.7559 32.9093 65.8108 32.7903 65.8408 32.664C65.8708 32.5378 65.8755 32.4068 65.8544 32.2787C65.8334 32.1506 65.7871 32.028 65.7182 31.918C65.6494 31.808 65.5593 31.7127 65.4533 31.6378L60.721 28.1853C60.9315 28.0619 61.192 27.916 61.4946 27.7593C62.3983 27.2913 63.6428 26.741 65.0391 26.3787C67.8454 25.6482 70.9102 25.7393 73.3327 28.292C74.5958 29.6227 75.0599 30.8731 75.15 32.0755C75.245 33.3445 74.9346 34.7202 74.3598 36.2898C74.0759 37.0663 73.741 37.8536 73.3826 38.677L73.1927 39.1128L73.1917 39.1157C72.896 39.7913 72.5895 40.4944 72.3104 41.1886C71.7817 42.5026 71.2852 43.945 71.0963 45.4382L71.0101 45.4578C70.31 45.6193 69.2946 45.7623 68.0207 45.8759C65.4896 46.1011 62.1751 46.1902 58.843 46.1598C55.5118 46.1305 52.2189 45.9806 49.7348 45.7388C48.5519 45.6252 47.6002 45.494 46.9295 45.3569C46.7933 43.8784 46.4526 42.4312 46.0658 41.0731C45.8142 40.1879 45.5332 39.3106 45.2649 38.4763L45.2521 38.4342C44.9858 37.6039 44.7332 36.8186 44.5129 36.0499C43.5787 32.7883 43.522 30.7693 44.883 29.2682C46.8051 27.1473 48.7693 26.0556 50.7423 25.8646C52.7065 25.6747 55.0477 26.3405 57.808 28.4888Z" fill="white"/>
<path d="M68.4056 50.2341L51.9605 56.1542L51.5688 54.4602L68.7875 48.2621C68.796 48.4364 68.7797 48.6139 68.7385 48.7948L68.4056 50.2341ZM52.6587 57.9842L67.8818 52.5038L67.4206 54.5053L54.6425 59.1054C54.2538 59.06 53.8781 58.9375 53.5374 58.745C53.1967 58.5525 52.898 58.2938 52.6587 57.9842ZM66.8967 56.775L60.3706 59.125H64.017C64.6813 59.1252 65.3261 58.9002 65.8461 58.4867C66.3661 58.0732 66.7306 57.4957 66.8801 56.8484L66.8967 56.775Z" fill="white"/>
<path d="M23.4958 55C20.7963 55 18.5178 54.405 16.6601 53.2149C14.8024 51.9958 13.3947 50.2542 12.4368 47.9902C11.4789 45.6971 11 42.9541 11 39.7612C11 36.3071 11.5805 33.419 12.7416 31.0969C13.9316 28.7458 15.5716 26.9752 17.6615 25.7851C19.7514 24.595 22.1751 24 24.9326 24C26.2968 24 27.603 24.1306 28.8511 24.3919C30.0993 24.6531 31.2022 25.074 32.1601 25.6545L30.8975 28.1798C30.1138 27.6573 29.214 27.2945 28.198 27.0913C27.1821 26.8591 26.1081 26.743 24.9761 26.743C21.6962 26.743 19.0693 27.7879 17.0955 29.8778C15.1507 31.9677 14.1784 35.088 14.1784 39.2388C14.1784 39.8773 14.2074 40.6756 14.2654 41.6334C14.3525 42.5623 14.5267 43.4911 14.7879 44.4199L13.6994 43.5927C14.0187 42.0833 14.6428 40.8062 15.5716 39.7612C16.5005 38.6873 17.6615 37.8745 19.0548 37.323C20.448 36.7715 21.9719 36.4958 23.6264 36.4958C25.6582 36.4958 27.4434 36.8731 28.9817 37.6278C30.5201 38.3825 31.7247 39.4419 32.5955 40.8062C33.4663 42.1704 33.9017 43.7814 33.9017 45.639C33.9017 47.5257 33.4518 49.1802 32.552 50.6025C31.6522 51.9958 30.404 53.0843 28.8076 53.868C27.2402 54.6227 25.4696 55 23.4958 55ZM23.3652 52.3441C24.8165 52.3441 26.0936 52.0829 27.1966 51.5604C28.3287 51.0089 29.214 50.2397 29.8525 49.2528C30.4911 48.2369 30.8104 47.0613 30.8104 45.7261C30.8104 43.7233 30.1138 42.1269 28.7205 40.9368C27.3563 39.7467 25.4986 39.1517 23.1475 39.1517C21.5801 39.1517 20.2158 39.4419 19.0548 40.0225C17.8937 40.603 16.9794 41.4012 16.3118 42.4171C15.6442 43.404 15.3104 44.536 15.3104 45.8132C15.3104 46.9162 15.6152 47.9757 16.2247 48.9916C16.8343 49.9785 17.7341 50.7912 18.9242 51.4298C20.1433 52.0393 21.6236 52.3441 23.3652 52.3441Z" fill="white"/>
</svg>
