<svg width="84" height="84" viewBox="0 0 84 84" fill="none" xmlns="http://www.w3.org/2000/svg">
<circle cx="41.665" cy="41.665" r="41.665" fill="#80C544"/>
<path fill-rule="evenodd" clip-rule="evenodd" d="M43.4319 27.9532C47.703 23.2415 52.9592 22.2339 59.0104 26.9437C59.0104 26.9437 68.524 20.3813 74.7535 26.9437C78.7876 31.1942 76.8489 35.6357 74.9816 39.9098C73.9672 42.2334 72.9743 44.508 72.9743 46.6758C72.5014 47.5042 68.4192 47.9448 63.5126 48.079L51.1262 52.5381L50.7345 50.8442L58.3211 48.1123C56.5511 48.0913 54.7817 48.0345 53.014 47.9419L50.2919 48.9221L50.2625 48.7948C50.1826 48.4514 50.1968 48.0928 50.3037 47.7568C47.3397 47.5062 45.2414 47.1361 45.0328 46.6758C45.0328 44.1653 44.1956 41.5528 43.3829 39.0188C42.0434 34.8446 40.7734 30.8848 43.4319 27.9532ZM57.808 28.4888C57.8622 28.5306 57.9177 28.5698 57.9745 28.6063L64.2999 33.2201C64.4036 33.2981 64.5218 33.3547 64.6477 33.3866C64.7735 33.4185 64.9044 33.425 65.0328 33.4059C65.1611 33.3867 65.2844 33.3422 65.3954 33.275C65.5064 33.2077 65.603 33.1191 65.6795 33.0142C65.7559 32.9093 65.8108 32.7903 65.8408 32.664C65.8708 32.5378 65.8755 32.4068 65.8544 32.2787C65.8334 32.1506 65.7871 32.028 65.7182 31.918C65.6494 31.808 65.5593 31.7127 65.4533 31.6378L60.721 28.1853C60.9315 28.0619 61.192 27.916 61.4946 27.7593C62.3983 27.2913 63.6428 26.741 65.0391 26.3787C67.8454 25.6482 70.9102 25.7393 73.3327 28.292C74.5958 29.6227 75.0599 30.8731 75.15 32.0755C75.245 33.3445 74.9346 34.7202 74.3598 36.2898C74.0759 37.0663 73.741 37.8536 73.3826 38.677L73.1927 39.1128L73.1917 39.1157C72.896 39.7913 72.5895 40.4944 72.3104 41.1886C71.7817 42.5026 71.2852 43.945 71.0963 45.4382L71.0101 45.4578C70.31 45.6193 69.2946 45.7623 68.0207 45.8759C65.4896 46.1011 62.1751 46.1902 58.843 46.1598C55.5118 46.1305 52.2189 45.9806 49.7348 45.7388C48.5519 45.6252 47.6002 45.494 46.9295 45.3569C46.7933 43.8784 46.4526 42.4312 46.0658 41.0731C45.8142 40.1879 45.5332 39.3106 45.2649 38.4763L45.2521 38.4342C44.9858 37.6039 44.7332 36.8186 44.5129 36.0499C43.5787 32.7883 43.522 30.7693 44.883 29.2682C46.8051 27.1473 48.7693 26.0556 50.7423 25.8646C52.7065 25.6747 55.0477 26.3405 57.808 28.4888Z" fill="white"/>
<path d="M68.4056 50.2341L51.9605 56.1542L51.5688 54.4602L68.7875 48.2621C68.796 48.4364 68.7797 48.6139 68.7385 48.7948L68.4056 50.2341ZM52.6587 57.9842L67.8818 52.5038L67.4206 54.5053L54.6425 59.1054C54.2538 59.06 53.8781 58.9375 53.5374 58.745C53.1967 58.5525 52.898 58.2938 52.6587 57.9842ZM66.8967 56.775L60.3706 59.125H64.017C64.6813 59.1252 65.3261 58.9002 65.8461 58.4867C66.3661 58.0732 66.7306 57.4957 66.8801 56.8484L66.8967 56.775Z" fill="white"/>
<path d="M7 46.8514V44.5486L23.5025 24H27.061L10.6919 44.5486L8.95717 44.0171H34V46.8514H7ZM24.57 55V46.8514L24.659 44.0171V36.8429H27.7727V55H24.57Z" fill="white"/>
</svg>
