<svg width="84" height="84" viewBox="0 0 84 84" fill="none" xmlns="http://www.w3.org/2000/svg">
<circle cx="41.665" cy="41.665" r="41.665" fill="#80C544"/>
<path fill-rule="evenodd" clip-rule="evenodd" d="M20.8038 24.1298C26.4381 17.9143 33.3717 16.5852 41.3542 22.7981C41.3542 22.7981 53.9041 14.1413 62.1217 22.7981C67.4433 28.4052 64.8858 34.2642 62.4226 39.9023C61.0844 42.9675 59.7747 45.968 59.7747 48.8277C59.1508 49.9205 53.7659 50.5017 47.2933 50.6787L30.9537 56.561L30.4371 54.3264L40.4449 50.7226C38.11 50.6949 35.7759 50.62 33.4441 50.4979L29.8532 51.7908L29.8145 51.6229C29.709 51.17 29.7277 50.6969 29.8687 50.2537C25.9589 49.9231 23.1908 49.4348 22.9157 48.8277C22.9157 45.5159 21.8113 42.0697 20.7392 38.7269C18.9722 33.2205 17.2969 27.997 20.8038 24.1298ZM39.7681 24.8363C39.8395 24.8914 39.9127 24.9431 39.9877 24.9913L48.3318 31.0777C48.4687 31.1805 48.6246 31.2552 48.7906 31.2972C48.9566 31.3393 49.1293 31.3479 49.2986 31.3227C49.4679 31.2974 49.6306 31.2387 49.777 31.15C49.9235 31.0613 50.0508 30.9444 50.1517 30.806C50.2526 30.6677 50.3249 30.5106 50.3645 30.3441C50.4041 30.1775 50.4103 30.0047 50.3825 29.8358C50.3547 29.6668 50.2937 29.5051 50.2028 29.3599C50.112 29.2148 49.9932 29.0892 49.8534 28.9903L43.6108 24.4359C43.8885 24.2732 44.2321 24.0807 44.6312 23.874C45.8234 23.2566 47.4651 22.5307 49.307 22.0528C53.0089 21.0892 57.0519 21.2093 60.2474 24.5767C61.9137 26.3321 62.5259 27.9815 62.6448 29.5677C62.7701 31.2417 62.3606 33.0565 61.6024 35.127C61.2278 36.1513 60.7861 37.1898 60.3133 38.2761L60.0627 38.8509L60.0614 38.8548C59.6714 39.746 59.2671 40.6735 58.8989 41.5892C58.2014 43.3227 57.5466 45.2253 57.2973 47.1951L57.1836 47.2209C56.2601 47.434 54.9206 47.6226 53.2402 47.7725C49.9012 48.0695 45.5289 48.1871 41.1334 48.147C36.7391 48.1083 32.3952 47.9107 29.1183 47.5916C27.5579 47.4418 26.3024 47.2687 25.4177 47.0879C25.2381 45.1375 24.7886 43.2284 24.2784 41.4368C23.9464 40.2692 23.5757 39.1118 23.2218 38.0113L23.205 37.9558C22.8537 36.8605 22.5204 35.8245 22.2298 34.8106C20.9976 30.508 20.9227 27.8446 22.7181 25.8645C25.2536 23.0668 27.8447 21.6265 30.4474 21.3747C33.0385 21.1241 36.1269 22.0024 39.7681 24.8363Z" fill="white"/>
<path d="M53.7478 53.5217L32.0543 61.3311L31.5376 59.0965L54.2516 50.9203C54.2628 51.1502 54.2412 51.3844 54.187 51.6229L53.7478 53.5217ZM32.9752 63.7452L53.0568 56.5158L52.4484 59.1559L35.5921 65.2242C35.0794 65.1644 34.5838 65.0028 34.1344 64.7488C33.685 64.4948 33.2909 64.1536 32.9752 63.7452ZM51.7574 62.15L43.1484 65.25H47.9586C48.8349 65.2503 49.6855 64.9535 50.3715 64.408C51.0574 63.8626 51.5382 63.1008 51.7354 62.2469L51.7574 62.15Z" fill="white"/>
</svg>
