<svg width="100" height="100" viewBox="0 0 100 100" fill="none" xmlns="http://www.w3.org/2000/svg">
<path fill-rule="evenodd" clip-rule="evenodd" d="M50 91.6667C73.0125 91.6667 91.6667 73.0125 91.6667 50C91.6667 26.9875 73.0125 8.33333 50 8.33333C26.9875 8.33333 8.33337 26.9875 8.33337 50C8.33337 73.0125 26.9875 91.6667 50 91.6667ZM72.3792 36.8125C72.5741 36.6117 72.7266 36.3737 72.8275 36.1126C72.9284 35.8516 72.9757 35.5729 72.9666 35.2932C72.9574 35.0135 72.892 34.7385 72.7742 34.4847C72.6564 34.2308 72.4887 34.0033 72.2811 33.8156C72.0734 33.628 71.8301 33.4841 71.5656 33.3926C71.3012 33.3011 71.021 33.2638 70.7418 33.283C70.4626 33.3021 70.1901 33.3773 69.9406 33.5041C69.6911 33.6309 69.4697 33.8066 69.2896 34.0208L44.3334 61.5979L30.6042 48.4917C30.2047 48.1099 29.6699 47.9024 29.1175 47.9149C28.565 47.9274 28.0402 48.1589 27.6584 48.5583C27.2766 48.9578 27.0691 49.4926 27.0816 50.0451C27.0941 50.5975 27.3256 51.1224 27.725 51.5042L43.0042 66.0875L44.5521 67.5667L45.9875 65.9792L72.3792 36.8125Z" fill="#242D38"/>
</svg>
