<svg width="100" height="100" viewBox="0 0 100 100" fill="none" xmlns="http://www.w3.org/2000/svg">
<path fill-rule="evenodd" clip-rule="evenodd" d="M91.6667 50C91.6667 73.0125 73.0125 91.6667 50 91.6667C26.9875 91.6667 8.33337 73.0125 8.33337 50C8.33337 26.9875 26.9875 8.33333 50 8.33333C73.0125 8.33333 91.6667 26.9875 91.6667 50ZM33.7959 66.2042C33.4053 65.8135 33.1859 65.2837 33.1859 64.7312C33.1859 64.1788 33.4053 63.649 33.7959 63.2583L47.0542 50L33.7959 36.7417C33.4164 36.3487 33.2064 35.8225 33.2111 35.2762C33.2159 34.73 33.435 34.2075 33.8213 33.8212C34.2075 33.4349 34.73 33.2158 35.2763 33.2111C35.8225 33.2063 36.3488 33.4163 36.7417 33.7958L50 47.0542L63.2584 33.7958C63.6513 33.4163 64.1776 33.2063 64.7238 33.2111C65.27 33.2158 65.7926 33.4349 66.1788 33.8212C66.5651 34.2075 66.7842 34.73 66.7889 35.2762C66.7937 35.8225 66.5837 36.3487 66.2042 36.7417L52.9459 50L66.2042 63.2583C66.5837 63.6513 66.7937 64.1775 66.7889 64.7238C66.7842 65.27 66.5651 65.7925 66.1788 66.1788C65.7926 66.5651 65.27 66.7842 64.7238 66.7889C64.1776 66.7937 63.6513 66.5837 63.2584 66.2042L50 52.9458L36.7417 66.2042C36.351 66.5947 35.8212 66.8141 35.2688 66.8141C34.7164 66.8141 34.1866 66.5947 33.7959 66.2042Z" fill="#80C544"/>
</svg>
