<svg width="100" height="100" viewBox="0 0 100 100" fill="none" xmlns="http://www.w3.org/2000/svg">
<path d="M90.9725 12.405H76.2075C75.9118 12.405 75.6282 12.5225 75.4191 12.7316C75.21 12.9407 75.0925 13.2243 75.0925 13.52C75.0925 13.8157 75.21 14.0993 75.4191 14.3084C75.6282 14.5175 75.9118 14.635 76.2075 14.635H90.9725C91.11 14.635 91.22 14.745 91.22 14.8825V30.8075H8.93752V14.8825C8.93818 14.8166 8.96481 14.7537 9.01162 14.7073C9.05843 14.661 9.12165 14.635 9.18752 14.635H24.7475C25.0432 14.635 25.3268 14.5175 25.5359 14.3084C25.745 14.0993 25.8625 13.8157 25.8625 13.52C25.8625 13.2243 25.745 12.9407 25.5359 12.7316C25.3268 12.5225 25.0432 12.405 24.7475 12.405H9.18752C8.53042 12.4057 7.90038 12.6668 7.43551 13.1312C6.97063 13.5956 6.70884 14.2254 6.70752 14.8825V88.7175C6.70752 90.0875 7.82002 91.2 9.18752 91.2H90.9725C91.6301 91.1987 92.2602 90.9365 92.7247 90.4711C93.1892 90.0057 93.45 89.375 93.45 88.7175V14.8825C93.4487 14.2258 93.1873 13.5964 92.7229 13.1321C92.2586 12.6678 91.6292 12.4063 90.9725 12.405ZM90.9725 88.97H9.18752C9.15448 88.97 9.12176 88.9634 9.09127 88.9507C9.06077 88.938 9.0331 88.9194 9.00985 88.8959C8.9866 88.8724 8.96824 88.8446 8.95583 88.8139C8.94341 88.7833 8.93719 88.7505 8.93752 88.7175V33.035H91.22V88.715C91.2207 88.748 91.2148 88.7809 91.2027 88.8116C91.1906 88.8424 91.1725 88.8704 91.1495 88.8941C91.1264 88.9178 91.099 88.9368 91.0686 88.9498C91.0382 88.9628 91.0056 88.9697 90.9725 88.97Z" fill="#242D38"/>
<path d="M35.4276 14.635H65.1876C65.4833 14.635 65.7669 14.5175 65.976 14.3084C66.1851 14.0993 66.3026 13.8157 66.3026 13.52C66.3026 13.2243 66.1851 12.9407 65.976 12.7316C65.7669 12.5225 65.4833 12.405 65.1876 12.405H35.4276C35.1318 12.405 34.8482 12.5225 34.6391 12.7316C34.43 12.9407 34.3126 13.2243 34.3126 13.52C34.3126 13.8157 34.43 14.0993 34.6391 14.3084C34.8482 14.5175 35.1318 14.635 35.4276 14.635ZM30.3676 22.36C30.9826 22.36 31.4826 21.86 31.4826 21.245V6.25001C31.4826 6.10359 31.4537 5.9586 31.3977 5.82332C31.3417 5.68804 31.2595 5.56512 31.156 5.46159C31.0525 5.35805 30.9295 5.27592 30.7943 5.21988C30.659 5.16385 30.514 5.13501 30.3676 5.13501C30.2211 5.13501 30.0761 5.16385 29.9409 5.21988C29.8056 5.27592 29.6827 5.35805 29.5791 5.46159C29.4756 5.56512 29.3935 5.68804 29.3374 5.82332C29.2814 5.9586 29.2526 6.10359 29.2526 6.25001V21.2475C29.2526 21.8625 29.7526 22.36 30.3676 22.36ZM70.7526 22.36C71.3676 22.36 71.8676 21.86 71.8676 21.245V6.25001C71.8676 5.95429 71.7501 5.67069 71.541 5.46159C71.3319 5.25248 71.0483 5.13501 70.7526 5.13501C70.4568 5.13501 70.1732 5.25248 69.9641 5.46159C69.755 5.67069 69.6376 5.95429 69.6376 6.25001V21.2475C69.6376 21.8625 70.1351 22.36 70.7526 22.36Z" fill="#242D38"/>
<path d="M24.605 49.9025C27.9988 49.9025 30.75 47.1513 30.75 43.7575C30.75 40.3637 27.9988 37.6125 24.605 37.6125C21.2112 37.6125 18.46 40.3637 18.46 43.7575C18.46 47.1513 21.2112 49.9025 24.605 49.9025Z" fill="#242D38"/>
<path d="M42.265 49.9025C45.6588 49.9025 48.41 47.1513 48.41 43.7575C48.41 40.3637 45.6588 37.6125 42.265 37.6125C38.8712 37.6125 36.12 40.3637 36.12 43.7575C36.12 47.1513 38.8712 49.9025 42.265 49.9025Z" fill="#242D38"/>
<path d="M59.9225 49.9025C63.3163 49.9025 66.0675 47.1513 66.0675 43.7575C66.0675 40.3637 63.3163 37.6125 59.9225 37.6125C56.5287 37.6125 53.7775 40.3637 53.7775 43.7575C53.7775 47.1513 56.5287 49.9025 59.9225 49.9025Z" fill="#242D38"/>
<path d="M24.605 67.015C27.9988 67.015 30.75 64.2638 30.75 60.87C30.75 57.4762 27.9988 54.725 24.605 54.725C21.2112 54.725 18.46 57.4762 18.46 60.87C18.46 64.2638 21.2112 67.015 24.605 67.015Z" fill="#242D38"/>
<path d="M42.265 67.015C45.6588 67.015 48.41 64.2638 48.41 60.87C48.41 57.4762 45.6588 54.725 42.265 54.725C38.8712 54.725 36.12 57.4762 36.12 60.87C36.12 64.2638 38.8712 67.015 42.265 67.015Z" fill="#242D38"/>
<path d="M59.9225 67.015C63.3163 67.015 66.0675 64.2638 66.0675 60.87C66.0675 57.4762 63.3163 54.725 59.9225 54.725C56.5287 54.725 53.7775 57.4762 53.7775 60.87C53.7775 64.2638 56.5287 67.015 59.9225 67.015Z" fill="#242D38"/>
<path d="M24.605 84.1275C27.9988 84.1275 30.75 81.3763 30.75 77.9825C30.75 74.5887 27.9988 71.8375 24.605 71.8375C21.2112 71.8375 18.46 74.5887 18.46 77.9825C18.46 81.3763 21.2112 84.1275 24.605 84.1275Z" fill="#B0B0B0"/>
<path d="M42.265 84.1275C45.6588 84.1275 48.41 81.3763 48.41 77.9825C48.41 74.5887 45.6588 71.8375 42.265 71.8375C38.8712 71.8375 36.12 74.5887 36.12 77.9825C36.12 81.3763 38.8712 84.1275 42.265 84.1275Z" fill="#B0B0B0"/>
<path d="M59.9225 84.1275C63.3163 84.1275 66.0675 81.3763 66.0675 77.9825C66.0675 74.5887 63.3163 71.8375 59.9225 71.8375C56.5287 71.8375 53.7775 74.5887 53.7775 77.9825C53.7775 81.3763 56.5287 84.1275 59.9225 84.1275Z" fill="#B0B0B0"/>
<path d="M77.145 84.29C80.5388 84.29 83.29 81.5388 83.29 78.145C83.29 74.7512 80.5388 72 77.145 72C73.7512 72 71 74.7512 71 78.145C71 81.5388 73.7512 84.29 77.145 84.29Z" fill="#B0B0B0"/>
<path d="M77.1675 49.9025C80.5613 49.9025 83.3125 47.1513 83.3125 43.7575C83.3125 40.3637 80.5613 37.6125 77.1675 37.6125C73.7737 37.6125 71.0225 40.3637 71.0225 43.7575C71.0225 47.1513 73.7737 49.9025 77.1675 49.9025Z" fill="#242D38"/>
<path d="M77.1675 67.015C80.5613 67.015 83.3125 64.2638 83.3125 60.87C83.3125 57.4762 80.5613 54.725 77.1675 54.725C73.7737 54.725 71.0225 57.4762 71.0225 60.87C71.0225 64.2638 73.7737 67.015 77.1675 67.015Z" fill="#242D38"/>
</svg>
